<svg version="1.1" xmlns="http://www.w3.org/2000/svg" viewBox="0 0 874.27734375 630.3731447815894" width="1748.5546875" height="1260.7462895631788">
  <!-- svg-source:excalidraw -->
  
  <defs>
    <style class="style-fonts">
      @font-face {
        font-family: "Virgil";
        src: url("https://excalidraw.com/Virgil.woff2");
      }
      @font-face {
        font-family: "Cascadia";
        src: url("https://excalidraw.com/Cascadia.woff2");
      }
      @font-face {
        font-family: "Assistant";
        src: url("https://app.excalidraw.com//dist/excalidraw-assets/Assistant-Regular.woff2");
      }
    </style>
    
  </defs>
  <rect x="0" y="0" width="874.27734375" height="630.3731447815894" fill="#ffffff"></rect><g stroke-linecap="round" transform="translate(10 15.23574159927665) rotate(0 427.138671875 299.279296875)"><path d="M32 0 C200.38 -2.51, 370.48 -1.96, 822.28 0 M32 0 C296.84 1.94, 561.88 1.9, 822.28 0 M822.28 0 C842.85 -0.8, 854.25 11.48, 854.28 32 M822.28 0 C842.26 -0.28, 855.56 11.3, 854.28 32 M854.28 32 C855.54 162.06, 854.37 292.18, 854.28 566.56 M854.28 32 C854.37 240.16, 855 447.48, 854.28 566.56 M854.28 566.56 C854.85 585.97, 844.36 599.73, 822.28 598.56 M854.28 566.56 C854.81 587.98, 843.63 600.28, 822.28 598.56 M822.28 598.56 C639.63 600.78, 458.56 600.24, 32 598.56 M822.28 598.56 C607.96 600.45, 393.17 600.35, 32 598.56 M32 598.56 C11.94 597.66, 0.03 585.95, 0 566.56 M32 598.56 C11.79 598.31, -0.61 585.69, 0 566.56 M0 566.56 C1.67 406.91, 1.09 247.67, 0 32 M0 566.56 C-1.39 390.62, -1.57 214.12, 0 32 M0 32 C-1.28 11.7, 9 0.96, 32 0 M0 32 C-1.45 10, 11.14 0.26, 32 0" stroke="#1e1e1e" stroke-width="1" fill="none"></path></g><g stroke-linecap="round"><g transform="translate(362.8203125 11.08730409927665) rotate(0 -0.04296875 304.283203125)"><path d="M0.95 -1.09 C1.14 100.53, 0.46 507.57, 0.26 609.29 M-0.01 0.96 C0.13 102.27, -0.32 506.5, -0.51 607.54" stroke="#1e1e1e" stroke-width="1" fill="none"></path></g></g><mask></mask><g transform="translate(28.3125 39.41542909927665) rotate(0 89.79596710205078 17.5)"><text x="0" y="0" font-family="Virgil, Segoe UI Emoji" font-size="28px" fill="#1e1e1e" text-anchor="start" style="white-space: pre;" direction="ltr" dominant-baseline="text-before-edge">Issue Triage</text></g><g stroke-linecap="round" transform="translate(15.720703125 115.31191347427665) rotate(0 169.419921875 45.095703125)"><path d="M22.55 0 C95.94 -0.89, 172.36 -0.46, 316.29 0 M22.55 0 C90.39 -1.87, 156.84 -2.34, 316.29 0 M316.29 0 C332.71 1.63, 339.04 7.29, 338.84 22.55 M316.29 0 C333.62 1.36, 338.26 7.62, 338.84 22.55 M338.84 22.55 C337.68 34.21, 337.44 48.02, 338.84 67.64 M338.84 22.55 C338.13 32.18, 339.36 43.82, 338.84 67.64 M338.84 67.64 C340.71 81.63, 332.97 88.37, 316.29 90.19 M338.84 67.64 C338.7 82.16, 331.33 91.27, 316.29 90.19 M316.29 90.19 C218.73 90.25, 119.4 91.39, 22.55 90.19 M316.29 90.19 C235.93 90.93, 155.64 90.66, 22.55 90.19 M22.55 90.19 C9.16 88.35, 0.5 82.92, 0 67.64 M22.55 90.19 C9.75 89.61, -1.05 84.35, 0 67.64 M0 67.64 C-0.54 55.34, 1.45 44.46, 0 22.55 M0 67.64 C-0.24 50.41, 0.45 34.33, 0 22.55 M0 22.55 C0.95 7.52, 7.33 1.54, 22.55 0 M0 22.55 C0.43 5.29, 5.6 0.99, 22.55 0" stroke="#1e1e1e" stroke-width="1" fill="none"></path></g><g transform="translate(257.595703125 130.71035097427665) rotate(0 38.191978454589844 10)"><text x="0" y="0" font-family="Virgil, Segoe UI Emoji" font-size="16px" fill="#868e96" text-anchor="start" style="white-space: pre;" direction="ltr" dominant-baseline="text-before-edge">PROJ-123</text></g><g stroke-linecap="round" transform="translate(32.630859375 162.81191347427665) rotate(0 33.24609375 15)"><path d="M2 1.74 C2 1.74, 2 1.74, 2 1.74 M2 1.74 C2 1.74, 2 1.74, 2 1.74 M1.08 8.89 C3.59 6.19, 5.87 1.66, 8.3 0.59 M1.08 8.89 C3.05 5.83, 5.9 3.81, 8.3 0.59 M1.47 14.53 C3.1 10.26, 5.57 8.52, 13.28 0.95 M1.47 14.53 C3.77 11.48, 7.36 6.55, 13.28 0.95 M1.87 20.17 C6.66 14.39, 9.26 12.1, 18.93 0.55 M1.87 20.17 C5.69 15.22, 10.89 10.54, 18.93 0.55 M1.61 26.57 C5.28 20.04, 12.91 15.97, 23.91 0.91 M1.61 26.57 C7.22 18.87, 14.82 12.66, 23.91 0.91 M3.97 29.95 C10.53 22.07, 20.49 14.29, 29.56 0.52 M3.97 29.95 C10.83 21.88, 17.67 12.97, 29.56 0.52 M9.61 29.56 C17.34 21.58, 25.7 8.55, 34.54 0.88 M9.61 29.56 C15.13 23.46, 20.39 15.45, 34.54 0.88 M14.6 29.92 C24.1 17.82, 35.66 6.63, 39.53 1.24 M14.6 29.92 C21.89 21.32, 31.72 11.23, 39.53 1.24 M20.24 29.52 C26.53 22.54, 33.45 14.43, 45.17 0.84 M20.24 29.52 C27.03 21.67, 33.74 13.31, 45.17 0.84 M25.23 29.88 C33.72 19.42, 44.11 9.8, 50.16 1.2 M25.23 29.88 C33.03 21.86, 40.77 13, 50.16 1.2 M30.87 29.49 C35.02 21.48, 43.35 16.06, 55.8 0.81 M30.87 29.49 C34.93 23.2, 41.55 17.28, 55.8 0.81 M35.86 29.85 C46.54 17.86, 54.35 10.75, 60.79 1.17 M35.86 29.85 C43.82 19.72, 52.52 11.01, 60.79 1.17 M40.85 30.21 C50.32 19.24, 57.74 8.48, 65.12 2.28 M40.85 30.21 C48.74 21.23, 57.88 12.14, 65.12 2.28 M46.49 29.81 C50.71 24.61, 55.73 18.24, 67.48 5.66 M46.49 29.81 C52.29 22.96, 58.9 15.34, 67.48 5.66 M51.48 30.17 C54.4 26.02, 57.58 22.81, 67.88 11.31 M51.48 30.17 C55.38 25.63, 57.81 22.72, 67.88 11.31 M57.12 29.78 C61.37 26.07, 65.17 21.31, 67.62 17.7 M57.12 29.78 C60.97 25.83, 65.52 19.94, 67.62 17.7 M60.79 31.65 C62.93 29.02, 63.79 28.41, 67.36 24.1 M60.79 31.65 C63.57 28.49, 65.87 26.25, 67.36 24.1 M4.55 29.82 C4.55 29.82, 4.55 29.82, 4.55 29.82 M4.55 29.82 C4.55 29.82, 4.55 29.82, 4.55 29.82 M10.2 29.43 C7.26 26.4, 3.35 24.58, 1.14 21.55 M10.2 29.43 C6.59 26.77, 2.91 23.25, 1.14 21.55 M16.59 29.69 C12.15 26.69, 4.75 22.5, 0.74 15.91 M16.59 29.69 C11.56 25.04, 7.04 20.29, 0.74 15.91 M22.99 29.95 C17.45 24.3, 12.58 18.95, 0.35 10.27 M22.99 29.95 C16.49 24.17, 9.19 16.67, 0.35 10.27 M28.63 29.55 C18.41 20.29, 9.07 12.98, 0.71 5.28 M28.63 29.55 C21.57 23.23, 14 16.48, 0.71 5.28 M35.03 29.82 C25.79 21.89, 12.05 10.65, 2.58 1.61 M35.03 29.82 C26.04 22.93, 17.01 13.61, 2.58 1.61 M41.43 30.08 C29.46 21.16, 17.74 7.99, 6.71 -0.1 M41.43 30.08 C29.51 19.09, 17.39 8.7, 6.71 -0.1 M47.07 29.68 C37.54 21.64, 28.97 11.25, 12.36 -0.5 M47.07 29.68 C39.97 22.23, 31.27 15.76, 12.36 -0.5 M53.47 29.94 C38.92 19.38, 28.4 8.12, 18.75 -0.23 M53.47 29.94 C40.96 18.4, 27.42 7.75, 18.75 -0.23 M59.11 29.55 C47.91 22.49, 38.93 14.12, 25.15 0.03 M59.11 29.55 C46.15 17.93, 32.14 6.22, 25.15 0.03 M64 28.5 C56.25 19.56, 44.78 12.02, 30.79 -0.37 M64 28.5 C57.2 22.43, 49.37 16.57, 30.79 -0.37 M66.63 25.48 C60.39 17.68, 54.49 12.57, 37.19 -0.11 M66.63 25.48 C60.7 18.66, 53.19 13.2, 37.19 -0.11 M66.23 19.84 C60.35 13.32, 50.55 7.26, 43.59 0.16 M66.23 19.84 C60.39 13.8, 53.92 8.91, 43.59 0.16 M66.59 14.85 C64.49 10.3, 57.08 6.9, 49.23 -0.24 M66.59 14.85 C61.66 10.28, 57.7 7.6, 49.23 -0.24 M66.2 9.21 C63.77 7.28, 59.77 2.25, 55.63 0.02 M66.2 9.21 C62.32 6.23, 59.39 2.86, 55.63 0.02 M66.56 4.22 C65.7 2.92, 64.49 2.32, 62.03 0.28 M66.56 4.22 C64.78 2.6, 63.07 1.06, 62.03 0.28" stroke="#ffc9c9" stroke-width="0.5" fill="none"></path><path d="M7.5 0 C24.53 0.28, 46.04 0.83, 58.99 0 M7.5 0 C23.19 1.19, 37.6 0.26, 58.99 0 M58.99 0 C65.99 1.18, 65.99 2.59, 66.49 7.5 M58.99 0 C63.82 -0.75, 65.43 1.33, 66.49 7.5 M66.49 7.5 C65.41 9.44, 67.68 13.77, 66.49 22.5 M66.49 7.5 C67.34 10.2, 67.25 13.01, 66.49 22.5 M66.49 22.5 C66.37 27.05, 64 30.93, 58.99 30 M66.49 22.5 C67.33 28.64, 64.45 31.99, 58.99 30 M58.99 30 C44.35 31.26, 31.11 31.11, 7.5 30 M58.99 30 C42.18 29.11, 23.97 30.15, 7.5 30 M7.5 30 C4.45 29.5, -0.91 28.96, 0 22.5 M7.5 30 C1.45 28.46, 1.83 26.54, 0 22.5 M0 22.5 C1.02 17.93, -1.43 14.08, 0 7.5 M0 22.5 C0.32 18.58, -0.1 15.22, 0 7.5 M0 7.5 C0.38 0.56, 0.83 0.86, 7.5 0 M0 7.5 C0.3 2.96, 2.54 0.99, 7.5 0" stroke="#1e1e1e" stroke-width="1" fill="none"></path></g><g transform="translate(48.036964416503906 167.81191347427665) rotate(0 17.839988708496094 10)"><text x="17.839988708496094" y="0" font-family="Virgil, Segoe UI Emoji" font-size="16px" fill="#1e1e1e" text-anchor="middle" style="white-space: pre;" direction="ltr" dominant-baseline="text-before-edge">BUG</text></g><g transform="translate(32.037109375 128.91738222427665) rotate(0 98.3999252319336 12.5)"><text x="0" y="0" font-family="Virgil, Segoe UI Emoji" font-size="20px" fill="#1e1e1e" text-anchor="start" style="white-space: pre;" direction="ltr" dominant-baseline="text-before-edge">Unhandled Exception</text></g><g stroke-linecap="round" transform="translate(16.154296875 232.94472597427665) rotate(0 169.419921875 45.095703125)"><path d="M22.55 0 C137.24 -2.41, 250.66 -0.82, 316.29 0 M22.55 0 C96.66 -2.48, 172.33 -1.89, 316.29 0 M316.29 0 C331.34 -0.09, 339.2 7.19, 338.84 22.55 M316.29 0 C331.31 0.7, 338.31 7.59, 338.84 22.55 M338.84 22.55 C339.35 39.12, 337 51.42, 338.84 67.64 M338.84 22.55 C338.51 33.55, 338.87 44.72, 338.84 67.64 M338.84 67.64 C340.59 81.34, 331.71 90.47, 316.29 90.19 M338.84 67.64 C339.99 83.92, 331.07 88.15, 316.29 90.19 M316.29 90.19 C219.18 90.76, 122.05 90.27, 22.55 90.19 M316.29 90.19 C217.37 89.93, 120.1 90.24, 22.55 90.19 M22.55 90.19 C8.36 88.57, -1.95 80.94, 0 67.64 M22.55 90.19 C6.98 89.65, 2.25 84.07, 0 67.64 M0 67.64 C-2.24 58.95, 1.07 45.96, 0 22.55 M0 67.64 C0.36 52.63, 0.08 39.16, 0 22.55 M0 22.55 C0.85 5.62, 5.55 -1.84, 22.55 0 M0 22.55 C1.94 5.97, 7.4 0.65, 22.55 0" stroke="#1e1e1e" stroke-width="1" fill="none"></path></g><g transform="translate(258.275390625 248.59316347427665) rotate(0 37.863975524902344 10)"><text x="0" y="0" font-family="Virgil, Segoe UI Emoji" font-size="16px" fill="#868e96" text-anchor="start" style="white-space: pre;" direction="ltr" dominant-baseline="text-before-edge">PROJ-124</text></g><g stroke-linecap="round" transform="translate(31.568359375 278.83925722427665) rotate(0 39.01953125 15.875)"><path d="M2.11 1.84 C2.11 1.84, 2.11 1.84, 2.11 1.84 M2.11 1.84 C2.11 1.84, 2.11 1.84, 2.11 1.84 M0.54 9.74 C2.43 8.88, 4.22 5.36, 8.41 0.69 M0.54 9.74 C4.17 5.94, 6.45 2.77, 8.41 0.69 M0.93 15.39 C5.15 13.25, 7.3 7.35, 14.06 0.29 M0.93 15.39 C6.22 11.22, 10.01 5.54, 14.06 0.29 M0.67 21.78 C8.97 14.09, 14.9 8.78, 19.04 0.65 M0.67 21.78 C7.72 13.2, 13.5 6.35, 19.04 0.65 M1.07 27.43 C6.33 18.26, 16.25 9.03, 24.03 1.01 M1.07 27.43 C8.31 18.88, 15.91 10.36, 24.03 1.01 M3.43 30.81 C9.42 21.88, 17.09 15.14, 29.67 0.62 M3.43 30.81 C10.47 21.07, 18.88 12.99, 29.67 0.62 M7.76 31.92 C16.48 21.98, 24.21 11.14, 34.66 0.98 M7.76 31.92 C16.81 21.91, 25.83 9.53, 34.66 0.98 M12.75 32.28 C21.33 24.88, 28.09 13.7, 40.3 0.58 M12.75 32.28 C20.55 24.32, 28.19 14.44, 40.3 0.58 M18.39 31.89 C24.19 24.09, 33.4 13.32, 45.29 0.94 M18.39 31.89 C24.89 23.16, 31.59 16.85, 45.29 0.94 M23.38 32.25 C33.84 22.47, 44.13 10.07, 50.93 0.55 M23.38 32.25 C32.81 21.34, 40.36 11.88, 50.93 0.55 M29.02 31.85 C33.97 24, 40.9 20.02, 55.92 0.91 M29.02 31.85 C39.38 19.92, 48.91 8.24, 55.92 0.91 M34.01 32.21 C42.12 26.07, 48 18.94, 60.91 1.27 M34.01 32.21 C44.02 22.21, 52.83 10.06, 60.91 1.27 M39.65 31.82 C48.1 23.85, 57.64 13.61, 66.55 0.87 M39.65 31.82 C46.55 23.04, 54.37 15.24, 66.55 0.87 M44.64 32.18 C53.82 18.34, 67.58 6.4, 71.54 1.24 M44.64 32.18 C54.77 21.66, 62.83 10.29, 71.54 1.24 M49.63 32.54 C59.79 20.29, 67.78 10.57, 75.87 2.35 M49.63 32.54 C57.32 22.77, 67.34 13.07, 75.87 2.35 M55.27 32.14 C61.98 25.87, 67.33 20.02, 77.57 6.48 M55.27 32.14 C59.37 26.51, 64.49 21.23, 77.57 6.48 M60.26 32.5 C66.94 26.36, 71.43 19.84, 77.97 12.13 M60.26 32.5 C63.36 27.9, 67.58 23.35, 77.97 12.13 M65.9 32.11 C70.94 29.01, 73.58 22.29, 77.71 18.52 M65.9 32.11 C68.95 28.03, 72.83 24.16, 77.71 18.52 M72.2 30.96 C74.76 28.39, 75.53 25.42, 78.1 24.17 M72.2 30.96 C73.4 29.83, 74.9 28.13, 78.1 24.17 M4.56 31.34 C4.56 31.34, 4.56 31.34, 4.56 31.34 M4.56 31.34 C4.56 31.34, 4.56 31.34, 4.56 31.34 M10.96 31.6 C7.63 28.48, 4.9 27.99, 2.66 24.38 M10.96 31.6 C8.65 29, 5.32 26.64, 2.66 24.38 M16.6 31.2 C11.7 28.46, 11.67 24.61, 3.02 19.39 M16.6 31.2 C12.67 27.37, 7.84 24.7, 3.02 19.39 M23 31.46 C19.77 25.45, 14.54 24.55, 2.62 13.75 M23 31.46 C18.97 27.12, 14.1 24.88, 2.62 13.75 M29.4 31.73 C17.63 23.39, 6.72 12.74, 0.72 6.8 M29.4 31.73 C21.23 24.73, 12.68 17.06, 0.72 6.8 M35.04 31.33 C28.03 21.98, 17.57 14.99, 2.59 3.12 M35.04 31.33 C24.92 23.91, 16.29 14.15, 2.59 3.12 M41.44 31.59 C26.15 19.16, 14.99 5.72, 4.46 -0.55 M41.44 31.59 C30.05 22.5, 18.96 12.46, 4.46 -0.55 M47.83 31.85 C32.39 21.24, 17.56 5.6, 9.34 -1.6 M47.83 31.85 C34.62 20.45, 20.39 8.73, 9.34 -1.6 M53.48 31.46 C42.06 20.3, 30.2 10.01, 15.74 -1.34 M53.48 31.46 C43.94 23.57, 36.09 15.92, 15.74 -1.34 M59.88 31.72 C45.74 20.99, 33.53 11.55, 21.39 -1.74 M59.88 31.72 C47.51 21.6, 35.41 10.79, 21.39 -1.74 M66.27 31.98 C57.5 24.98, 51.19 17.79, 27.78 -1.48 M66.27 31.98 C57.46 23.87, 47.12 15.49, 27.78 -1.48 M71.16 30.93 C60.59 22.5, 53.73 16.65, 34.18 -1.21 M71.16 30.93 C60.02 20.92, 46.6 10.51, 34.18 -1.21 M75.3 29.23 C64.11 21.21, 54.06 11.81, 39.82 -1.61 M75.3 29.23 C62.49 17.18, 47.69 6.36, 39.82 -1.61 M77.92 26.21 C68.51 17, 55.58 7.13, 46.22 -1.35 M77.92 26.21 C68.54 19.24, 60.63 12.78, 46.22 -1.35 M78.28 21.22 C69.53 14.5, 64.07 5.36, 52.62 -1.09 M78.28 21.22 C72.74 16.37, 66.87 11.51, 52.62 -1.09 M77.89 15.58 C72.31 10.57, 68.24 8.02, 58.26 -1.48 M77.89 15.58 C74.08 11.15, 69.08 8.15, 58.26 -1.48 M78.25 10.59 C74.49 7.54, 72.44 4.92, 64.66 -1.22 M78.25 10.59 C73.27 6.91, 69.27 3.82, 64.66 -1.22 M78.61 5.6 C76.25 4.69, 76.14 3.6, 71.06 -0.96 M78.61 5.6 C76.01 3.12, 73.54 1.38, 71.06 -0.96" stroke="#d0bfff" stroke-width="0.5" fill="none"></path><path d="M7.94 0 C19.51 -0.11, 34.84 -1.77, 70.1 0 M7.94 0 C23.49 -0.23, 39.21 -0.35, 70.1 0 M70.1 0 C75.38 0.6, 77.58 2.71, 78.04 7.94 M70.1 0 C76.01 0.66, 80.09 3.08, 78.04 7.94 M78.04 7.94 C77.03 13.99, 77.81 19.91, 78.04 23.81 M78.04 7.94 C78.75 11.99, 78.2 17.21, 78.04 23.81 M78.04 23.81 C79.04 30.18, 75.17 29.98, 70.1 31.75 M78.04 23.81 C78.72 29.37, 77 31.2, 70.1 31.75 M70.1 31.75 C56.13 29.51, 40.88 29.56, 7.94 31.75 M70.1 31.75 C55.01 30.88, 38.1 30.83, 7.94 31.75 M7.94 31.75 C2.18 31.28, 1.95 30.31, 0 23.81 M7.94 31.75 C0.87 33.89, -1.03 27.01, 0 23.81 M0 23.81 C0.2 19.36, 0.88 13.34, 0 7.94 M0 23.81 C0.26 19.24, -0.86 15.44, 0 7.94 M0 7.94 C1.69 1.3, 2.54 0.56, 7.94 0 M0 7.94 C0.03 1, 1.7 1.9, 7.94 0" stroke="#1e1e1e" stroke-width="1" fill="none"></path></g><g transform="translate(39.403907775878906 284.71425722427665) rotate(0 31.183982849121094 10)"><text x="31.183982849121094" y="0" font-family="Virgil, Segoe UI Emoji" font-size="16px" fill="#1e1e1e" text-anchor="middle" style="white-space: pre;" direction="ltr" dominant-baseline="text-before-edge">Feature</text></g><g transform="translate(32.470703125 246.79628847427665) rotate(0 89.07992553710938 12.5)"><text x="0" y="0" font-family="Virgil, Segoe UI Emoji" font-size="20px" fill="#1e1e1e" text-anchor="start" style="white-space: pre;" direction="ltr" dominant-baseline="text-before-edge">New feature idea!</text></g><g stroke-linecap="round" transform="translate(20.662109375 348.29238222427665) rotate(0 169.419921875 45.095703125)"><path d="M2.89 9.13 C2.89 9.13, 2.89 9.13, 2.89 9.13 M2.89 9.13 C2.89 9.13, 2.89 9.13, 2.89 9.13 M0.66 17.8 C5.63 12.69, 4.82 9.82, 14.43 1.95 M0.66 17.8 C5.48 12, 10.77 5.36, 14.43 1.95 M1.05 23.44 C5.49 18.32, 9.65 12.14, 20.73 0.8 M1.05 23.44 C6.89 16.13, 13.66 8.7, 20.73 0.8 M0.79 29.84 C5.41 21.39, 13.49 18.37, 26.38 0.4 M0.79 29.84 C7.64 19.4, 15.78 10.47, 26.38 0.4 M0.53 36.24 C13.66 22.02, 24.06 8.16, 32.02 0.01 M0.53 36.24 C11.91 22.9, 23.61 9.63, 32.02 0.01 M0.92 41.88 C13.25 26.64, 27.06 9.58, 37.01 0.37 M0.92 41.88 C14.84 27.33, 27.31 13.56, 37.01 0.37 M0.66 48.28 C8.73 35.06, 21.4 25.6, 42.65 -0.03 M0.66 48.28 C9.87 36.95, 21.17 25, 42.65 -0.03 M1.06 53.92 C12.01 40.56, 25.26 26.46, 47.64 0.33 M1.06 53.92 C17.05 34.95, 33.05 17.69, 47.64 0.33 M0.8 60.32 C12.01 45.11, 23.47 31.15, 53.28 -0.06 M0.8 60.32 C14.5 45.94, 26.16 29.83, 53.28 -0.06 M0.53 66.71 C14.26 53.75, 23.29 37.3, 58.27 0.3 M0.53 66.71 C16.46 49.62, 30.98 31.82, 58.27 0.3 M0.27 73.11 C19.48 51.02, 33.78 34.05, 63.91 -0.09 M0.27 73.11 C16.59 54.05, 35.02 34.14, 63.91 -0.09 M1.98 77.25 C22.13 52.31, 42.29 29.96, 68.9 0.27 M1.98 77.25 C27.17 49.53, 50.5 19.99, 68.9 0.27 M3.69 81.38 C18.63 62.58, 36.37 46.99, 74.54 -0.13 M3.69 81.38 C24.86 57.3, 47.55 32.16, 74.54 -0.13 M6.7 84 C26.77 58.37, 50.56 33.27, 79.53 0.23 M6.7 84 C23 64.1, 40.26 46.04, 79.53 0.23 M9.72 86.63 C35.91 58.51, 59.74 29.51, 85.17 -0.16 M9.72 86.63 C36.3 58.46, 60.37 28.32, 85.17 -0.16 M12.74 89.25 C39.72 57.53, 64.81 27.75, 90.16 0.2 M12.74 89.25 C32.53 67.9, 50.41 45.8, 90.16 0.2 M17.73 89.61 C35.56 70.65, 53.44 50.1, 95.8 -0.2 M17.73 89.61 C35.5 68.18, 55.03 46.98, 95.8 -0.2 M22.06 90.73 C44.45 60.6, 69.16 35.24, 100.79 0.16 M22.06 90.73 C52.64 55.58, 82.81 20.47, 100.79 0.16 M27.05 91.09 C55 58.46, 82.1 29.62, 106.43 -0.23 M27.05 91.09 C47.7 66.65, 66.6 44.63, 106.43 -0.23 M32.69 90.69 C47.11 72.27, 64.59 50.93, 111.42 0.13 M32.69 90.69 C49.91 70.62, 68.17 49.3, 111.42 0.13 M37.68 91.05 C60.78 63.56, 83.43 41.18, 117.06 -0.27 M37.68 91.05 C63.7 58.86, 92.33 27.48, 117.06 -0.27 M43.32 90.66 C72.63 57.12, 100.51 24.87, 122.05 0.09 M43.32 90.66 C65.67 62.87, 90.31 34.48, 122.05 0.09 M48.31 91.02 C68.8 68.58, 85.68 46.14, 127.03 0.45 M48.31 91.02 C68.3 68.58, 87 47.58, 127.03 0.45 M53.95 90.62 C72.19 69.06, 95.02 43.72, 132.68 0.06 M53.95 90.62 C82.98 56.61, 113.08 21.37, 132.68 0.06 M58.94 90.98 C74.63 73.69, 91.03 52.3, 137.66 0.42 M58.94 90.98 C87.2 56.25, 117.56 24.1, 137.66 0.42 M64.58 90.59 C87.73 63.7, 113.76 36.57, 143.31 0.02 M64.58 90.59 C92.27 56.06, 121.11 24.17, 143.31 0.02 M69.57 90.95 C98.57 60.34, 123.45 28.93, 148.29 0.38 M69.57 90.95 C95.67 58.36, 124.49 26.11, 148.29 0.38 M75.21 90.55 C94.32 69.55, 114.11 42.06, 153.94 -0.01 M75.21 90.55 C93.5 70.51, 110.18 52.15, 153.94 -0.01 M80.2 90.91 C96.28 70.75, 113.2 54.98, 158.92 0.35 M80.2 90.91 C102.38 65.6, 124.84 39.76, 158.92 0.35 M85.84 90.52 C117.22 55.5, 144.95 20.14, 164.57 -0.04 M85.84 90.52 C116.06 53, 148.39 16.99, 164.57 -0.04 M90.83 90.88 C118.93 62.49, 142.58 31.99, 169.55 0.32 M90.83 90.88 C111.62 68.3, 130.97 45.38, 169.55 0.32 M96.47 90.49 C119.89 61.74, 147.96 34.74, 175.2 -0.08 M96.47 90.49 C117.45 67.89, 137.11 44.32, 175.2 -0.08 M101.46 90.85 C118.08 69.63, 137.53 47.29, 180.18 0.28 M101.46 90.85 C119.8 67.57, 139.09 45.59, 180.18 0.28 M106.44 91.21 C121.66 72.59, 138.12 54.72, 185.83 -0.11 M106.44 91.21 C125.91 69.49, 144.71 47.92, 185.83 -0.11 M112.09 90.81 C130.53 66.84, 150 46.18, 190.81 0.25 M112.09 90.81 C132.04 68.87, 149.78 47.88, 190.81 0.25 M117.07 91.17 C146.89 60.59, 172.76 25.68, 196.46 -0.15 M117.07 91.17 C136.92 68.24, 156.75 46.47, 196.46 -0.15 M122.72 90.78 C142.49 66.95, 163.89 47.09, 201.45 0.21 M122.72 90.78 C144.06 64.02, 167.72 37.52, 201.45 0.21 M127.7 91.14 C154.17 58.92, 182.33 27.39, 207.09 -0.18 M127.7 91.14 C154.02 60.96, 180.77 29.41, 207.09 -0.18 M133.35 90.74 C161.5 58.61, 185.92 27.93, 212.08 0.18 M133.35 90.74 C152.55 68.07, 172.47 45.61, 212.08 0.18 M138.34 91.1 C153.52 72.84, 170.18 53.69, 217.72 -0.22 M138.34 91.1 C168.98 55.29, 198.06 19.38, 217.72 -0.22 M143.98 90.71 C170.77 57.62, 200.75 22.67, 222.71 0.14 M143.98 90.71 C162.34 68.72, 180.96 47.24, 222.71 0.14 M148.97 91.07 C181.55 53.86, 211.77 17.32, 228.35 -0.25 M148.97 91.07 C165.27 72.09, 181.33 53.29, 228.35 -0.25 M154.61 90.67 C171.43 73.75, 184.77 52.99, 233.34 0.11 M154.61 90.67 C185 53.2, 216.51 17.49, 233.34 0.11 M159.6 91.03 C187.49 57.4, 217.48 24.79, 238.32 0.47 M159.6 91.03 C181.43 66.75, 201.39 43.92, 238.32 0.47 M165.24 90.64 C184.05 65.87, 207.01 42.15, 243.97 0.07 M165.24 90.64 C191.05 59, 219.7 27.5, 243.97 0.07 M170.23 91 C191.09 67.58, 210.44 40.76, 248.95 0.43 M170.23 91 C198.57 59.76, 226.11 28.52, 248.95 0.43 M175.87 90.6 C193.19 69.72, 211.31 52.43, 254.6 0.04 M175.87 90.6 C197.57 64.08, 220.49 39.03, 254.6 0.04 M180.86 90.96 C199.15 68.24, 217.81 48.93, 259.58 0.4 M180.86 90.96 C204.87 62.33, 229.73 35.28, 259.58 0.4 M186.5 90.57 C205.4 69.27, 224.73 46.88, 265.23 0 M186.5 90.57 C211.33 62.74, 236.32 35.7, 265.23 0 M191.49 90.93 C215.9 66.34, 238.47 39.15, 270.21 0.36 M191.49 90.93 C216.14 61.62, 241.42 33.06, 270.21 0.36 M197.13 90.54 C222.46 60.6, 251.62 28.45, 275.86 -0.03 M197.13 90.54 C219.59 63.46, 243.03 35.96, 275.86 -0.03 M202.12 90.9 C219.61 71.93, 235.48 52.76, 280.84 0.33 M202.12 90.9 C231.6 54.85, 261.62 20.8, 280.84 0.33 M207.76 90.5 C230.6 63.75, 255.01 37, 286.49 -0.06 M207.76 90.5 C224.3 70.96, 242.64 49.88, 286.49 -0.06 M212.75 90.86 C238.01 59.45, 266.64 32.45, 291.47 0.3 M212.75 90.86 C232.71 66.58, 254.95 41.91, 291.47 0.3 M218.39 90.47 C241.1 63.68, 264.28 34.8, 297.12 -0.1 M218.39 90.47 C237.23 67.07, 258.37 43.05, 297.12 -0.1 M223.38 90.83 C246.53 62.65, 268.06 36.86, 302.1 0.26 M223.38 90.83 C251.72 59.37, 279.66 25.47, 302.1 0.26 M228.36 91.19 C251.01 62.7, 276.99 38.21, 307.75 -0.13 M228.36 91.19 C247.6 69.05, 267.1 45.97, 307.75 -0.13 M234.01 90.79 C255.48 68.36, 276.02 42.7, 312.73 0.23 M234.01 90.79 C265.44 54.91, 296.97 19, 312.73 0.23 M238.99 91.15 C258.3 70.02, 272.7 49.08, 317.72 0.59 M238.99 91.15 C257.38 71.77, 273.16 51.85, 317.72 0.59 M244.64 90.76 C258.22 72.38, 275.87 56.16, 322.71 0.95 M244.64 90.76 C271.55 60.56, 298.14 29.81, 322.71 0.95 M249.62 91.12 C281.16 56.48, 309.22 20.75, 327.04 2.06 M249.62 91.12 C274.74 62.81, 299.19 35.41, 327.04 2.06 M255.27 90.72 C279.07 61.47, 304.85 34.19, 330.71 3.93 M255.27 90.72 C277.4 63.34, 301.35 35.93, 330.71 3.93 M260.25 91.08 C285.75 59.2, 314.64 27.72, 333.73 6.56 M260.25 91.08 C278.31 69.87, 296.13 50.54, 333.73 6.56 M265.9 90.69 C284.52 66.37, 306.07 45.09, 335.44 10.69 M265.9 90.69 C283.78 69.4, 300.52 50.12, 335.44 10.69 M270.88 91.05 C295.77 60.25, 323.34 31.99, 337.15 14.82 M270.88 91.05 C285.39 74.25, 298.69 57.84, 337.15 14.82 M276.53 90.65 C297.17 66.86, 318.3 42.78, 338.85 18.96 M276.53 90.65 C292.08 72.1, 307.42 53.43, 338.85 18.96 M281.51 91.01 C306.43 65.71, 325.19 39.64, 338.59 25.35 M281.51 91.01 C295.51 76.22, 307.5 59.68, 338.59 25.35 M287.16 90.62 C299.32 78.65, 308.22 63.32, 338.98 31 M287.16 90.62 C299.96 75.69, 313.99 59.82, 338.98 31 M292.14 90.98 C300.85 80.93, 312.88 69.09, 338.72 37.4 M292.14 90.98 C308.58 71.88, 325.69 51.61, 338.72 37.4 M297.79 90.59 C309.47 79.22, 320.04 64.88, 339.12 43.04 M297.79 90.59 C309.28 76.58, 322.51 61.84, 339.12 43.04 M302.77 90.95 C317.04 79.36, 326.78 61.68, 338.86 49.44 M302.77 90.95 C313.03 78.24, 325.06 64.74, 338.86 49.44 M308.42 90.55 C317.97 81.85, 325.11 71.44, 339.25 55.08 M308.42 90.55 C317.41 79.35, 328.67 67.54, 339.25 55.08 M313.4 90.91 C324.28 80.92, 334.6 67.52, 338.99 61.48 M313.4 90.91 C318.23 84.4, 324.74 77.94, 338.99 61.48 M319.7 89.76 C324.26 84.1, 330.25 74.64, 338.73 67.87 M319.7 89.76 C325.59 82.64, 332.87 75.31, 338.73 67.87 M326.66 87.86 C332.29 81.69, 336.57 77.54, 337.81 75.03 M326.66 87.86 C329.1 85.66, 331.99 82.82, 337.81 75.03 M3.33 81.52 C3.33 81.52, 3.33 81.52, 3.33 81.52 M3.33 81.52 C3.33 81.52, 3.33 81.52, 3.33 81.52 M15.01 86.38 C12.09 82.77, 8.86 81.86, 0.67 73.91 M15.01 86.38 C9.94 83.35, 6.88 79.66, 0.67 73.91 M23.68 88.61 C13.76 79.79, 5.02 73.77, 2.54 70.24 M23.68 88.61 C19.3 84.98, 13.91 80.23, 2.54 70.24 M30.07 88.87 C22.92 85.2, 19.76 79.77, 2.9 65.25 M30.07 88.87 C21.58 80.49, 11.84 72.09, 2.9 65.25 M35.72 88.47 C23.46 78.1, 9.47 65.93, 2.51 59.61 M35.72 88.47 C22.9 77.63, 10.38 66.69, 2.51 59.61 M42.11 88.74 C27.01 76.45, 17.82 68.25, 2.87 54.62 M42.11 88.74 C27.91 77.58, 15.21 65.87, 2.87 54.62 M48.51 89 C31.67 72.57, 12.43 57.96, 2.47 48.98 M48.51 89 C35.95 79.1, 24.35 69.68, 2.47 48.98 M54.15 88.6 C45.83 80.82, 32.3 69.81, 2.83 43.99 M54.15 88.6 C34.83 71.8, 16.97 56.54, 2.83 43.99 M60.55 88.86 C37.84 70.25, 14.88 49.64, 2.44 38.35 M60.55 88.86 C48.11 77.52, 34.64 66.43, 2.44 38.35 M66.2 88.47 C47.49 73.6, 30.52 59.58, 2.8 33.36 M66.2 88.47 C42.04 68.08, 18.15 47.42, 2.8 33.36 M72.59 88.73 C52.08 72.56, 32.15 51.96, 2.41 27.72 M72.59 88.73 C51.36 68.85, 28.97 48.95, 2.41 27.72 M78.99 88.99 C55.63 68.97, 32.83 47.45, 2.77 22.73 M78.99 88.99 C63.53 75.31, 46.38 59.49, 2.77 22.73 M84.63 88.6 C49.58 60.64, 18.75 31.25, 1.62 16.43 M84.63 88.6 C57.22 64.62, 32.9 41.83, 1.62 16.43 M91.03 88.86 C65.12 66.07, 34.39 43, 2.73 12.1 M91.03 88.86 C71.93 72.34, 51.54 55.16, 2.73 12.1 M96.68 88.47 C73.19 68.6, 48.81 45.56, 3.85 7.77 M96.68 88.47 C66.55 64.26, 38.69 38.15, 3.85 7.77 M103.07 88.73 C76.93 67.01, 51.17 42.77, 6.47 4.75 M103.07 88.73 C81.84 70.77, 62.16 52.2, 6.47 4.75 M109.47 88.99 C83.9 67.22, 58.63 44.15, 9.85 2.39 M109.47 88.99 C69.61 54.12, 30.13 19.39, 9.85 2.39 M115.11 88.59 C82.29 59.75, 46.12 31.08, 14.74 1.34 M115.11 88.59 C82.84 63.13, 52.13 36.27, 14.74 1.34 M121.51 88.85 C101.91 69.56, 80.08 51.25, 19.63 0.29 M121.51 88.85 C87.69 61, 55.34 31.67, 19.63 0.29 M127.15 88.46 C99.16 60.39, 65.42 37.16, 23.76 -1.42 M127.15 88.46 C99.27 62.95, 70.4 38.71, 23.76 -1.42 M133.55 88.72 C92.82 53.98, 52.61 17.64, 30.16 -1.16 M133.55 88.72 C109.52 68.53, 85.62 47.86, 30.16 -1.16 M139.95 88.98 C111.06 61.91, 84.01 37.79, 35.8 -1.55 M139.95 88.98 C118.24 69, 94.45 49.04, 35.8 -1.55 M145.59 88.59 C115.7 61.12, 84.56 36.09, 42.2 -1.29 M145.59 88.59 C108.52 55.35, 69.83 22.84, 42.2 -1.29 M151.99 88.85 C109.72 50.85, 66.48 18.19, 47.84 -1.69 M151.99 88.85 C122.4 65.55, 93.28 40.01, 47.84 -1.69 M157.63 88.46 C127.73 63.48, 101.48 39.01, 54.24 -1.42 M157.63 88.46 C122.42 58.19, 85.65 26.86, 54.24 -1.42 M164.03 88.72 C140.96 69.63, 119.52 49.73, 60.64 -1.16 M164.03 88.72 C129.96 59.18, 97.03 29.55, 60.64 -1.16 M170.43 88.98 C138.56 60.37, 106.61 32.64, 66.28 -1.56 M170.43 88.98 C141.13 64.16, 112.53 39.64, 66.28 -1.56 M176.07 88.58 C153.7 68.46, 127.84 49.34, 72.68 -1.3 M176.07 88.58 C147.84 64.66, 119.74 38.53, 72.68 -1.3 M182.47 88.85 C160.36 70.19, 137.3 48.95, 78.32 -1.69 M182.47 88.85 C157.92 67.48, 132.81 46.31, 78.32 -1.69 M188.11 88.45 C150.53 59.51, 117.8 26.17, 84.72 -1.43 M188.11 88.45 C150.3 55.12, 112.21 21.1, 84.72 -1.43 M194.51 88.71 C168.13 64.57, 139.41 43.52, 91.12 -1.17 M194.51 88.71 C171.32 69.39, 148.93 51.37, 91.12 -1.17 M200.91 88.97 C177.42 68.36, 150.68 44.82, 96.76 -1.56 M200.91 88.97 C170.02 62.99, 137.07 35.51, 96.76 -1.56 M206.55 88.58 C171.99 58.65, 137.34 27.33, 103.16 -1.3 M206.55 88.58 C168.78 54.59, 130.23 20.27, 103.16 -1.3 M212.95 88.84 C189.4 70.22, 168.26 49.57, 108.8 -1.7 M212.95 88.84 C183.68 63.29, 153.72 37.53, 108.8 -1.7 M218.59 88.45 C179.73 52.23, 137.42 19.4, 115.2 -1.43 M218.59 88.45 C179.58 55.94, 143.06 23.85, 115.2 -1.43 M224.99 88.71 C190.08 61.18, 156.48 27.68, 121.6 -1.17 M224.99 88.71 C186.69 55.67, 150.24 22.36, 121.6 -1.17 M231.39 88.97 C191.8 55.38, 152.29 20.6, 127.24 -1.57 M231.39 88.97 C209.98 70.89, 186.01 51.01, 127.24 -1.57 M237.03 88.57 C211.8 65.44, 184.04 45.69, 133.64 -1.31 M237.03 88.57 C201.59 56.65, 166.28 26.01, 133.64 -1.31 M243.43 88.84 C208.52 59.2, 175.13 28.59, 139.28 -1.7 M243.43 88.84 C217.29 64.98, 191.1 43.94, 139.28 -1.7 M249.07 88.44 C226.39 70.83, 204.9 48.77, 145.68 -1.44 M249.07 88.44 C223.39 66.34, 199.67 43.88, 145.68 -1.44 M255.47 88.7 C224.16 62.31, 194.52 35.95, 152.08 -1.18 M255.47 88.7 C216.74 54.03, 176.38 20.65, 152.08 -1.18 M261.87 88.96 C232.96 62.75, 205.55 40.79, 157.72 -1.57 M261.87 88.96 C238.14 69.18, 216.39 47.67, 157.72 -1.57 M267.51 88.57 C225.49 52.45, 186.97 19.03, 164.12 -1.31 M267.51 88.57 C225.73 54.18, 186.87 17.8, 164.12 -1.31 M273.91 88.83 C249.91 68.33, 224.4 50.37, 169.76 -1.71 M273.91 88.83 C244.93 62.94, 216.32 36.07, 169.76 -1.71 M279.55 88.44 C244.92 60.21, 214.8 29.6, 176.16 -1.44 M279.55 88.44 C252.3 64.52, 225.09 39.3, 176.16 -1.44 M285.95 88.7 C252.84 59.2, 220.13 33.68, 182.55 -1.18 M285.95 88.7 C247.46 57.4, 209.98 23.87, 182.55 -1.18 M292.35 88.96 C263.87 62.46, 235.36 36.33, 188.2 -1.58 M292.35 88.96 C265.29 64.1, 235.92 39.47, 188.2 -1.58 M297.99 88.56 C261.95 59.42, 228.46 27.6, 194.6 -1.32 M297.99 88.56 C273.52 67.78, 249.78 48.04, 194.6 -1.32 M304.39 88.83 C278.76 65.14, 252.43 43.53, 200.24 -1.71 M304.39 88.83 C277.78 64.9, 251.4 41.84, 200.24 -1.71 M310.03 88.43 C280.28 60.67, 248.72 34.53, 206.64 -1.45 M310.03 88.43 C268.22 52.24, 227.58 17.43, 206.64 -1.45 M317.18 89.35 C283.77 59.88, 250.59 31.5, 213.03 -1.19 M317.18 89.35 C281.18 58.52, 243.14 25.72, 213.03 -1.19 M322.07 88.3 C287.65 55.57, 251.47 28.17, 218.68 -1.58 M322.07 88.3 C282.35 51.55, 241.88 16.49, 218.68 -1.58 M326.96 87.25 C291.79 53.31, 257.19 22.58, 225.08 -1.32 M326.96 87.25 C295.32 61.21, 266.63 33.79, 225.08 -1.32 M331.09 85.54 C302.46 62.07, 277 35.74, 230.72 -1.72 M331.09 85.54 C299.95 60.77, 269.43 33.02, 230.72 -1.72 M333.72 82.52 C305.92 58.35, 276.44 35.46, 237.12 -1.45 M333.72 82.52 C305.6 57.49, 279.3 35.08, 237.12 -1.45 M336.34 79.5 C315.18 60.43, 290.86 38.6, 243.51 -1.19 M336.34 79.5 C313.18 58.81, 291.75 41.05, 243.51 -1.19 M338.97 76.48 C314.31 53.33, 287.04 32.16, 249.16 -1.59 M338.97 76.48 C311.27 51.67, 282.12 26.19, 249.16 -1.59 M339.33 71.5 C320.37 55.34, 303.2 39.06, 255.55 -1.33 M339.33 71.5 C317.05 52.71, 295.7 35.23, 255.55 -1.33 M339.69 66.51 C309.86 41.57, 283.9 19.29, 261.2 -1.72 M339.69 66.51 C318.99 48.43, 299.91 32.06, 261.2 -1.72 M340.05 61.52 C318.79 40.97, 297.59 23.38, 267.6 -1.46 M340.05 61.52 C323.98 46.66, 306.73 31.58, 267.6 -1.46 M339.65 55.88 C319.11 35.78, 295.22 16.62, 273.99 -1.2 M339.65 55.88 C313.56 32.19, 288.36 9.43, 273.99 -1.2 M340.01 50.89 C326.28 35.43, 308.57 24.15, 279.64 -1.59 M340.01 50.89 C315.26 29.53, 290.98 8.86, 279.64 -1.59 M339.62 45.25 C322.36 30.39, 303.71 15.51, 286.03 -1.33 M339.62 45.25 C323.63 31.27, 309.96 18.16, 286.03 -1.33 M339.22 39.61 C322.87 22.99, 302.43 10.57, 291.68 -1.72 M339.22 39.61 C329.75 30.54, 319.52 22.38, 291.68 -1.72 M339.58 34.62 C331.51 25.54, 319.82 17.2, 298.07 -1.46 M339.58 34.62 C329.8 26.63, 319.2 16.77, 298.07 -1.46 M339.19 28.98 C325.34 17.25, 313.22 5.73, 304.47 -1.2 M339.19 28.98 C329.62 21.62, 320.86 14.05, 304.47 -1.2 M339.55 23.99 C331.5 18.84, 326.36 11.54, 310.12 -1.6 M339.55 23.99 C330.86 17.14, 321.62 8.24, 310.12 -1.6 M339.15 18.35 C330.89 13.33, 323.45 7.03, 317.27 -0.68 M339.15 18.35 C332.11 12.37, 323.44 5.15, 317.27 -0.68 M341.02 14.67 C337.35 10.55, 330.23 5.32, 324.42 0.24 M341.02 14.67 C335.94 10.81, 331.73 7.66, 324.42 0.24" stroke="#a5d8ff" stroke-width="0.5" fill="none"></path><path d="M22.55 0 C108.25 -1.83, 195.19 0.32, 316.29 0 M22.55 0 C135.85 -1.74, 248.86 -1.68, 316.29 0 M316.29 0 C331.21 1.5, 338.11 7.88, 338.84 22.55 M316.29 0 C330.69 -0.28, 341.01 7.63, 338.84 22.55 M338.84 22.55 C337.5 34.75, 339.24 45.17, 338.84 67.64 M338.84 22.55 C339.35 39.57, 339.06 55.8, 338.84 67.64 M338.84 67.64 C340.83 81.77, 331.23 88.55, 316.29 90.19 M338.84 67.64 C341.06 80.59, 333.39 87.96, 316.29 90.19 M316.29 90.19 C241.74 87.62, 163.33 87.39, 22.55 90.19 M316.29 90.19 C226.18 90.82, 137.36 91.36, 22.55 90.19 M22.55 90.19 C8.53 91.39, 1.62 80.96, 0 67.64 M22.55 90.19 C9.21 90.09, -0.52 81.14, 0 67.64 M0 67.64 C-1.11 49.03, 0.38 33.92, 0 22.55 M0 67.64 C0.46 57.68, -0.76 50.03, 0 22.55 M0 22.55 C0.79 7.72, 7.61 -0.74, 22.55 0 M0 22.55 C2.25 6.89, 9.24 -1.67, 22.55 0" stroke="#1e1e1e" stroke-width="1" fill="none"></path></g><g transform="translate(263.044921875 363.69081972427665) rotate(0 37.68797302246094 10)"><text x="0" y="0" font-family="Virgil, Segoe UI Emoji" font-size="16px" fill="#868e96" text-anchor="start" style="white-space: pre;" direction="ltr" dominant-baseline="text-before-edge">PROJ-125</text></g><g transform="translate(36.740234375 361.89785097427665) rotate(0 75.31993103027344 12.5)"><text x="0" y="0" font-family="Virgil, Segoe UI Emoji" font-size="20px" fill="#1e1e1e" text-anchor="start" style="white-space: pre;" direction="ltr" dominant-baseline="text-before-edge">Product search</text></g><g stroke-linecap="round" transform="translate(14.728515625 460.94081972427665) rotate(0 169.419921875 45.095703125)"><path d="M22.55 0 C83.31 2.74, 147.83 0.78, 316.29 0 M22.55 0 C122.38 2.14, 222.65 1.72, 316.29 0 M316.29 0 C331.6 0.42, 340.18 6.06, 338.84 22.55 M316.29 0 C329.88 -0.27, 340.61 9.64, 338.84 22.55 M338.84 22.55 C339.66 34.61, 339.7 43.9, 338.84 67.64 M338.84 22.55 C338.58 33.53, 338.91 43.91, 338.84 67.64 M338.84 67.64 C337.84 84.52, 331.89 89.22, 316.29 90.19 M338.84 67.64 C337.85 80.7, 331.8 87.97, 316.29 90.19 M316.29 90.19 C210.73 89.71, 106.06 88.75, 22.55 90.19 M316.29 90.19 C248.12 91.74, 179.74 90.79, 22.55 90.19 M22.55 90.19 C8.61 89.46, -1.06 81.42, 0 67.64 M22.55 90.19 C5.7 91.44, -1.33 82.08, 0 67.64 M0 67.64 C-1.63 56.89, 0.64 41.8, 0 22.55 M0 67.64 C-0.4 50.23, -0.88 34.34, 0 22.55 M0 22.55 C1.13 7.69, 7.78 0.53, 22.55 0 M0 22.55 C2.24 6.42, 5.25 -0.32, 22.55 0" stroke="#1e1e1e" stroke-width="1" fill="none"></path></g><g transform="translate(260.787109375 477.14394472427665) rotate(0 37.863975524902344 10)"><text x="0" y="0" font-family="Virgil, Segoe UI Emoji" font-size="16px" fill="#868e96" text-anchor="start" style="white-space: pre;" direction="ltr" dominant-baseline="text-before-edge">PROJ-126</text></g><g stroke-linecap="round" transform="translate(31.638671875 508.44081972427665) rotate(0 33.24609375 15)"><path d="M2 1.74 C2 1.74, 2 1.74, 2 1.74 M2 1.74 C2 1.74, 2 1.74, 2 1.74 M0.42 9.64 C3.24 6.28, 5.15 3.91, 8.3 0.59 M0.42 9.64 C2.93 6.07, 5.9 2.55, 8.3 0.59 M0.82 15.29 C3.06 12.85, 5.07 6.57, 13.28 0.95 M0.82 15.29 C6.01 9.47, 10.74 5.49, 13.28 0.95 M1.21 20.93 C6.83 12.04, 11.21 8.29, 18.93 0.55 M1.21 20.93 C7.19 14.12, 12.12 6.83, 18.93 0.55 M1.61 26.57 C10.41 17.69, 18.99 8.04, 23.91 0.91 M1.61 26.57 C6.51 19.96, 11.74 13.13, 23.91 0.91 M3.97 29.95 C12.22 20.33, 20.01 10.24, 29.56 0.52 M3.97 29.95 C12.65 19.84, 19.43 12.31, 29.56 0.52 M9.61 29.56 C16.33 18.73, 25.93 10.89, 34.54 0.88 M9.61 29.56 C18.04 20, 26.95 9.47, 34.54 0.88 M14.6 29.92 C19.77 22.51, 27.84 15.14, 39.53 1.24 M14.6 29.92 C23.4 19.7, 32.8 9.64, 39.53 1.24 M20.24 29.52 C29.01 19.84, 38.42 7.21, 45.17 0.84 M20.24 29.52 C30.54 17.53, 39.11 7.47, 45.17 0.84 M25.23 29.88 C31.95 22.32, 39.93 12.9, 50.16 1.2 M25.23 29.88 C31.56 22.37, 39.76 13.5, 50.16 1.2 M30.87 29.49 C39.97 19.19, 51.39 5.69, 55.8 0.81 M30.87 29.49 C37.28 21.15, 45.46 13.21, 55.8 0.81 M35.86 29.85 C40.85 21.51, 49.54 14.3, 60.79 1.17 M35.86 29.85 C43.29 21.96, 50.12 12.64, 60.79 1.17 M40.85 30.21 C45.2 25.28, 52.29 17.79, 64.46 3.04 M40.85 30.21 C46.7 24.82, 51.16 18.34, 64.46 3.04 M46.49 29.81 C53.62 22.51, 61.37 13.65, 66.17 7.17 M46.49 29.81 C54.66 21.83, 61.73 12.19, 66.17 7.17 M51.48 30.17 C55.59 23.01, 59.81 16.96, 65.91 13.57 M51.48 30.17 C57.14 23.71, 62.81 18.71, 65.91 13.57 M57.12 29.78 C59.94 25.37, 64.57 21.59, 66.3 19.21 M57.12 29.78 C60.83 26.08, 64.37 21.56, 66.3 19.21 M62.76 29.38 C64.36 27.73, 65.48 26.61, 66.04 25.61 M62.76 29.38 C63.27 28.77, 64.3 27.77, 66.04 25.61 M4.55 29.82 C4.55 29.82, 4.55 29.82, 4.55 29.82 M4.55 29.82 C4.55 29.82, 4.55 29.82, 4.55 29.82 M10.2 29.43 C7.04 26.94, 4.51 25.6, 1.14 21.55 M10.2 29.43 C6.94 26.44, 4.35 23.73, 1.14 21.55 M16.59 29.69 C10.81 24.9, 7.32 20.2, 0.74 15.91 M16.59 29.69 C11.26 24.76, 3.77 19.11, 0.74 15.91 M22.99 29.95 C16.29 22.87, 8.27 17.07, 0.35 10.27 M22.99 29.95 C16.17 24.47, 10.62 18.07, 0.35 10.27 M28.63 29.55 C20.47 20.26, 7.67 10.93, 0.71 5.28 M28.63 29.55 C18.17 20.46, 8.99 12.44, 0.71 5.28 M35.03 29.82 C22.13 21.8, 11.23 12.53, 2.58 1.61 M35.03 29.82 C26.57 22.93, 18.09 13.7, 2.58 1.61 M41.43 30.08 C30.07 20.37, 20.72 11.03, 6.71 -0.1 M41.43 30.08 C29.12 20.94, 18.99 10.21, 6.71 -0.1 M47.07 29.68 C36.03 19.93, 23.25 9.02, 12.36 -0.5 M47.07 29.68 C37.24 21.71, 27.81 13.25, 12.36 -0.5 M53.47 29.94 C41.61 17.37, 30.34 8.1, 18.75 -0.23 M53.47 29.94 C43.87 19.89, 32.71 12.75, 18.75 -0.23 M59.11 29.55 C51.17 22.5, 40.55 14.8, 25.15 0.03 M59.11 29.55 C47.57 18, 33.5 6.82, 25.15 0.03 M64 28.5 C51.25 18.24, 43.45 6.92, 30.79 -0.37 M64 28.5 C51.85 18.1, 38.63 7.3, 30.79 -0.37 M66.63 25.48 C58.27 19.27, 54.69 15.36, 37.19 -0.11 M66.63 25.48 C57.06 18.01, 47.41 9.43, 37.19 -0.11 M66.23 19.84 C58.18 13.08, 55.55 6.89, 43.59 0.16 M66.23 19.84 C56.81 12.73, 48.48 5.42, 43.59 0.16 M66.59 14.85 C60.05 9.49, 54.75 4.59, 49.23 -0.24 M66.59 14.85 C59.66 9.06, 54.06 3.9, 49.23 -0.24 M66.2 9.21 C63.04 5.16, 57.3 3.72, 55.63 0.02 M66.2 9.21 C63.71 6.81, 60.6 4.6, 55.63 0.02 M66.56 4.22 C65.14 3.63, 64.57 2.8, 62.03 0.28 M66.56 4.22 C65.54 3.51, 64.73 2.76, 62.03 0.28" stroke="#ffc9c9" stroke-width="0.5" fill="none"></path><path d="M7.5 0 C26.27 -0.51, 41.45 -0.01, 58.99 0 M7.5 0 C23.03 0.51, 38.95 -0.43, 58.99 0 M58.99 0 C62.74 -0.23, 68.03 4.35, 66.49 7.5 M58.99 0 C62.83 -1.9, 67.71 3.88, 66.49 7.5 M66.49 7.5 C65.66 13.96, 66.72 16.72, 66.49 22.5 M66.49 7.5 C66.07 13.03, 66.65 16.81, 66.49 22.5 M66.49 22.5 C65.63 25.79, 64.41 28.07, 58.99 30 M66.49 22.5 C67.83 26.13, 63.54 29.4, 58.99 30 M58.99 30 C42.37 30.72, 29.33 29.43, 7.5 30 M58.99 30 C39.9 29.4, 19.17 29.13, 7.5 30 M7.5 30 C0.92 31.08, -1.16 26.99, 0 22.5 M7.5 30 C1.78 31.51, -0.6 25.97, 0 22.5 M0 22.5 C0.95 18.15, 1.15 11.39, 0 7.5 M0 22.5 C0.5 19.3, 0.18 16.16, 0 7.5 M0 7.5 C1.95 1.55, 0.53 -0.28, 7.5 0 M0 7.5 C-1.13 1.25, 3.13 2.18, 7.5 0" stroke="#1e1e1e" stroke-width="1" fill="none"></path></g><g transform="translate(47.044776916503906 513.4408197242767) rotate(0 17.839988708496094 10)"><text x="17.839988708496094" y="0" font-family="Virgil, Segoe UI Emoji" font-size="16px" fill="#1e1e1e" text-anchor="middle" style="white-space: pre;" direction="ltr" dominant-baseline="text-before-edge">BUG</text></g><g transform="translate(31.294921875 474.54628847427665) rotate(0 111.7599105834961 12.5)"><text x="0" y="0" font-family="Virgil, Segoe UI Emoji" font-size="20px" fill="#1e1e1e" text-anchor="start" style="white-space: pre;" direction="ltr" dominant-baseline="text-before-edge">Large messages not ...</text></g><g stroke-linecap="round" transform="translate(39.41796875 391.27089784927665) rotate(0 39.01953125 15.875)"><path d="M2.11 1.84 C2.11 1.84, 2.11 1.84, 2.11 1.84 M2.11 1.84 C2.11 1.84, 2.11 1.84, 2.11 1.84 M0.54 9.74 C3.53 6.9, 4.08 3.4, 8.41 0.69 M0.54 9.74 C2.13 7.56, 4.76 4.96, 8.41 0.69 M0.93 15.39 C3.04 11.35, 5.52 6.98, 14.06 0.29 M0.93 15.39 C4.46 11.2, 5.75 8.8, 14.06 0.29 M0.67 21.78 C7.07 14.56, 11.24 8.7, 19.04 0.65 M0.67 21.78 C6.02 15.3, 13.33 8.08, 19.04 0.65 M1.07 27.43 C8.93 18.72, 16.84 12.26, 24.03 1.01 M1.07 27.43 C6.49 20.27, 12.68 14.25, 24.03 1.01 M3.43 30.81 C13.9 21.62, 22.57 9.67, 29.67 0.62 M3.43 30.81 C11.39 21.94, 18.61 13.84, 29.67 0.62 M7.76 31.92 C12.28 24.01, 18.96 17.3, 34.66 0.98 M7.76 31.92 C13.73 24.85, 21.94 16.66, 34.66 0.98 M12.75 32.28 C18.36 25.56, 26.87 18.8, 40.3 0.58 M12.75 32.28 C20.28 22.79, 29.84 13.16, 40.3 0.58 M18.39 31.89 C26.63 22.03, 35.26 12.24, 45.29 0.94 M18.39 31.89 C23.65 25.2, 30.02 18.07, 45.29 0.94 M23.38 32.25 C30.85 23.93, 41.52 11.11, 50.93 0.55 M23.38 32.25 C33.87 19.61, 45.17 7.31, 50.93 0.55 M29.02 31.85 C37.42 23.45, 43.34 14.89, 55.92 0.91 M29.02 31.85 C39.11 21.44, 46.43 11.88, 55.92 0.91 M34.01 32.21 C38.34 25.12, 47.22 17.06, 60.91 1.27 M34.01 32.21 C42.1 23.92, 49.98 14.24, 60.91 1.27 M39.65 31.82 C51.87 17.61, 60.98 8.82, 66.55 0.87 M39.65 31.82 C49.02 22.07, 57.31 11.46, 66.55 0.87 M44.64 32.18 C54.3 21.77, 60.48 11, 71.54 1.24 M44.64 32.18 C51.57 23.69, 58.04 16.73, 71.54 1.24 M49.63 32.54 C56.81 22.92, 64.51 14.96, 75.87 2.35 M49.63 32.54 C56.47 24.99, 62.78 18.27, 75.87 2.35 M55.27 32.14 C65.57 21.47, 70.6 13.43, 77.57 6.48 M55.27 32.14 C62.44 21.78, 71.97 13.83, 77.57 6.48 M60.26 32.5 C65.72 30.16, 67.35 25.61, 77.97 12.13 M60.26 32.5 C65.27 27.27, 69.65 20.9, 77.97 12.13 M65.9 32.11 C71.69 25.59, 74.4 22.91, 77.71 18.52 M65.9 32.11 C68.5 29.14, 70.27 26.19, 77.71 18.52 M72.2 30.96 C74.7 27.91, 76.84 26.5, 78.1 24.17 M72.2 30.96 C73.95 29.18, 76.42 26.58, 78.1 24.17 M4.56 31.34 C4.56 31.34, 4.56 31.34, 4.56 31.34 M4.56 31.34 C4.56 31.34, 4.56 31.34, 4.56 31.34 M10.96 31.6 C8.07 30.85, 5.45 27.41, 1.15 23.07 M10.96 31.6 C7.42 28.35, 4.54 25.71, 1.15 23.07 M16.6 31.2 C11.91 24.39, 2.9 21.04, 0.75 17.43 M16.6 31.2 C11.19 25.45, 4.43 22.5, 0.75 17.43 M23 31.46 C15.89 25.23, 7.36 19.46, 0.36 11.78 M23 31.46 C16.63 25.53, 10.43 18.84, 0.36 11.78 M29.4 31.73 C21.33 27.1, 14.97 18.21, 0.72 6.8 M29.4 31.73 C20.38 23.67, 9.61 15.59, 0.72 6.8 M35.04 31.33 C27.74 22.91, 20.23 18.96, 1.83 2.47 M35.04 31.33 C24.67 21.54, 14.07 12.77, 1.83 2.47 M41.44 31.59 C26.19 18.64, 13.48 7.09, 5.97 0.76 M41.44 31.59 C28.38 21.79, 15.8 9.52, 5.97 0.76 M47.83 31.85 C35.78 21.52, 22.17 10.29, 10.85 -0.29 M47.83 31.85 C39.53 22.65, 28.86 16.11, 10.85 -0.29 M53.48 31.46 C45.65 25.13, 36.79 16.02, 17.25 -0.03 M53.48 31.46 C40.83 20.91, 30.04 11.56, 17.25 -0.03 M59.88 31.72 C46.6 22.69, 34.96 11.33, 23.65 0.23 M59.88 31.72 C47.65 21.12, 37.27 12.7, 23.65 0.23 M66.27 31.98 C50.02 21.22, 35.95 6.38, 29.29 -0.16 M66.27 31.98 C54.41 23, 44.23 11.56, 29.29 -0.16 M71.16 30.93 C60.56 19.49, 45.55 10.82, 35.69 0.1 M71.16 30.93 C61.98 22.16, 52.99 15.18, 35.69 0.1 M76.05 29.88 C67.79 20.4, 58.43 13.44, 42.09 0.36 M76.05 29.88 C68.63 23.76, 62.29 18.18, 42.09 0.36 M77.92 26.21 C68.5 20.67, 62.18 12.45, 47.73 -0.04 M77.92 26.21 C66.98 17.66, 56.94 9.56, 47.73 -0.04 M77.53 20.56 C70.9 12.63, 62.64 6.6, 54.13 0.23 M77.53 20.56 C71.2 14.7, 65.16 9.22, 54.13 0.23 M77.89 15.58 C70.97 11.33, 64.15 5.38, 60.53 0.49 M77.89 15.58 C74.08 13.31, 70.46 9.56, 60.53 0.49 M77.49 9.93 C72.51 5.26, 69.48 1.79, 66.17 0.09 M77.49 9.93 C73.35 6.63, 68.25 2.12, 66.17 0.09 M77.85 4.95 C76.06 3.98, 74.82 1.53, 72.57 0.35 M77.85 4.95 C76.64 3.82, 75.91 3.16, 72.57 0.35" stroke="#d0bfff" stroke-width="0.5" fill="none"></path><path d="M7.94 0 C28.89 1.4, 48.32 -0.25, 70.1 0 M7.94 0 C26.03 0.41, 44.02 0.31, 70.1 0 M70.1 0 C77.11 1.92, 76.33 4.33, 78.04 7.94 M70.1 0 C75.97 1.98, 76.98 4.92, 78.04 7.94 M78.04 7.94 C78.32 12.4, 77.04 14.23, 78.04 23.81 M78.04 7.94 C78.4 13.35, 78.56 19.56, 78.04 23.81 M78.04 23.81 C77.08 29.88, 74.81 31.31, 70.1 31.75 M78.04 23.81 C77.84 28.05, 74.33 29.82, 70.1 31.75 M70.1 31.75 C57.99 33.41, 44.9 32.52, 7.94 31.75 M70.1 31.75 C47.05 31.54, 24.83 30.8, 7.94 31.75 M7.94 31.75 C1.11 31.35, -1.73 30.71, 0 23.81 M7.94 31.75 C0.47 30.49, 1.11 27.33, 0 23.81 M0 23.81 C-0.23 19, 1.45 17.95, 0 7.94 M0 23.81 C0.53 20.63, 0.26 17.44, 0 7.94 M0 7.94 C-0.64 1.21, 4.16 0.61, 7.94 0 M0 7.94 C-0.01 1.41, 2.7 -0.72, 7.94 0" stroke="#1e1e1e" stroke-width="1" fill="none"></path></g><g transform="translate(47.253517150878906 397.14589784927665) rotate(0 31.183982849121094 10)"><text x="31.183982849121094" y="0" font-family="Virgil, Segoe UI Emoji" font-size="16px" fill="#1e1e1e" text-anchor="middle" style="white-space: pre;" direction="ltr" dominant-baseline="text-before-edge">Feature</text></g><g transform="translate(389.45350646972656 43.64199159927665) rotate(0 105.44795989990234 17.5)"><text x="0" y="0" font-family="Virgil, Segoe UI Emoji" font-size="28px" fill="#1e1e1e" text-anchor="start" style="white-space: pre;" direction="ltr" dominant-baseline="text-before-edge">Product search</text></g><g transform="translate(720.4448394775391 50.38417909927665) rotate(0 47.109962463378906 12.5)"><text x="0" y="0" font-family="Virgil, Segoe UI Emoji" font-size="20px" fill="#868e96" text-anchor="start" style="white-space: pre;" direction="ltr" dominant-baseline="text-before-edge">PROJ-125</text></g><g stroke-linecap="round" transform="translate(393.35546875 89.08730409927665) rotate(0 39.01953125 15.875)"><path d="M2.11 1.84 C2.11 1.84, 2.11 1.84, 2.11 1.84 M2.11 1.84 C2.11 1.84, 2.11 1.84, 2.11 1.84 M1.2 8.99 C4.39 4.89, 6.12 2.03, 8.41 0.69 M1.2 8.99 C3.23 6.62, 4.66 4.67, 8.41 0.69 M1.59 14.63 C4.64 10.73, 12.26 2.98, 14.06 0.29 M1.59 14.63 C4.69 10.54, 7.18 7.98, 14.06 0.29 M1.33 21.03 C9.3 15.63, 15.92 5.84, 19.04 0.65 M1.33 21.03 C5.06 17.47, 8.8 12.85, 19.04 0.65 M1.07 27.43 C8.44 18.72, 17.53 6.21, 24.03 1.01 M1.07 27.43 C9.9 18.03, 17.97 8.48, 24.03 1.01 M3.43 30.81 C8.54 22.87, 14.27 19.9, 29.67 0.62 M3.43 30.81 C11.09 21.26, 18.83 13.84, 29.67 0.62 M6.45 33.43 C11.18 25.47, 18.06 18.26, 34.66 0.98 M6.45 33.43 C14.16 23.98, 22.88 14.38, 34.66 0.98 M12.09 33.04 C23.47 21.86, 34.56 6.95, 40.3 0.58 M12.09 33.04 C18.94 25.81, 23.26 18.7, 40.3 0.58 M17.08 33.4 C24.85 24.88, 32.75 14.56, 45.29 0.94 M17.08 33.4 C21.75 26.77, 28.37 20.58, 45.29 0.94 M22.72 33 C30.65 25.59, 34.56 18.99, 50.93 0.55 M22.72 33 C29.22 25.35, 35.78 18.56, 50.93 0.55 M27.71 33.36 C36.1 23.21, 43.79 16.34, 55.92 0.91 M27.71 33.36 C35.79 25.99, 41.66 16.74, 55.92 0.91 M32.7 33.72 C40.76 26.41, 48.48 16.23, 60.91 1.27 M32.7 33.72 C44.62 20.71, 54.21 7.74, 60.91 1.27 M38.34 33.33 C47.35 26, 51.73 16.41, 66.55 0.87 M38.34 33.33 C47.41 23.83, 55.84 12.89, 66.55 0.87 M43.33 33.69 C51.03 24.23, 59.6 15.11, 71.54 1.24 M43.33 33.69 C53.17 22.18, 64.66 9.22, 71.54 1.24 M48.97 33.29 C56.69 24.62, 58.86 20.05, 75.87 2.35 M48.97 33.29 C59.32 21.1, 68.88 9.61, 75.87 2.35 M53.96 33.65 C63.76 24.93, 71.38 14.21, 78.89 4.97 M53.96 33.65 C60.32 26.7, 66.72 20.7, 78.89 4.97 M59.6 33.26 C65.93 25.47, 73.61 16.11, 78.62 11.37 M59.6 33.26 C63.34 28.86, 67.61 23.33, 78.62 11.37 M64.59 33.62 C69.38 29.62, 71.77 27.46, 78.36 17.77 M64.59 33.62 C69.84 27.36, 74.15 21.13, 78.36 17.77 M70.89 32.47 C73.24 28.96, 75.68 26.21, 78.76 23.41 M70.89 32.47 C73 29.42, 75.74 26.95, 78.76 23.41 M4.56 31.34 C4.56 31.34, 4.56 31.34, 4.56 31.34 M4.56 31.34 C4.56 31.34, 4.56 31.34, 4.56 31.34 M10.96 31.6 C8.94 29.35, 7 27.82, 2.66 24.38 M10.96 31.6 C8.06 28.63, 4.74 26.53, 2.66 24.38 M16.6 31.2 C15.15 29.37, 10.56 24.1, 3.02 19.39 M16.6 31.2 C12.3 28.28, 8.11 23.34, 3.02 19.39 M23 31.46 C13.88 25.35, 10.09 19.68, 2.62 13.75 M23 31.46 C17.87 26.76, 10.81 21.45, 2.62 13.75 M29.4 31.73 C24.32 28.13, 15.68 21.9, 0.72 6.8 M29.4 31.73 C23.2 25.6, 17.08 20.89, 0.72 6.8 M35.04 31.33 C26.48 25.72, 20.96 19.33, 2.59 3.12 M35.04 31.33 C25.98 24.24, 16.17 15.52, 2.59 3.12 M41.44 31.59 C31.22 20.19, 16.86 12.22, 4.46 -0.55 M41.44 31.59 C31.13 24.2, 20.93 14.18, 4.46 -0.55 M47.83 31.85 C40.02 23.89, 27.02 15.61, 9.34 -1.6 M47.83 31.85 C36.43 22.22, 26.8 14.29, 9.34 -1.6 M53.48 31.46 C40.52 20.34, 28.37 9.48, 15.74 -1.34 M53.48 31.46 C45.62 23.94, 39.01 18.48, 15.74 -1.34 M59.88 31.72 C52.85 22.6, 42.09 16.23, 21.39 -1.74 M59.88 31.72 C48.02 21.8, 37.45 12.04, 21.39 -1.74 M66.27 31.98 C55.02 22.81, 48.05 12.61, 27.78 -1.48 M66.27 31.98 C54.87 21.98, 42.8 11.37, 27.78 -1.48 M71.16 30.93 C60.44 19.67, 50.45 12.85, 34.18 -1.21 M71.16 30.93 C55.68 18.99, 41.99 6.35, 34.18 -1.21 M75.3 29.23 C60.06 16.58, 48.73 6.35, 39.82 -1.61 M75.3 29.23 C61.78 18.06, 48.65 5.73, 39.82 -1.61 M77.92 26.21 C70.19 18.98, 64.34 11.25, 46.22 -1.35 M77.92 26.21 C66.36 15.7, 53.81 5.56, 46.22 -1.35 M78.28 21.22 C72.7 16.05, 65.44 10.03, 52.62 -1.09 M78.28 21.22 C67.74 13.23, 57.73 3.47, 52.62 -1.09 M77.89 15.58 C72.68 10.29, 62.5 2.74, 58.26 -1.48 M77.89 15.58 C72.1 10.4, 68.2 5.81, 58.26 -1.48 M78.25 10.59 C74.69 6.47, 68.38 2.6, 64.66 -1.22 M78.25 10.59 C75.91 7.88, 71.98 4.69, 64.66 -1.22 M78.61 5.6 C76.55 4.08, 75.24 1.81, 71.06 -0.96 M78.61 5.6 C76.92 4.12, 75.03 2.27, 71.06 -0.96" stroke="#d0bfff" stroke-width="0.5" fill="none"></path><path d="M7.94 0 C23.07 -1.41, 39.23 0, 70.1 0 M7.94 0 C30.02 -0.31, 52.09 0.58, 70.1 0 M70.1 0 C75.9 -1.5, 79.79 2.79, 78.04 7.94 M70.1 0 C73.51 1.66, 78.66 2.47, 78.04 7.94 M78.04 7.94 C78.23 12.08, 79.27 13.02, 78.04 23.81 M78.04 7.94 C77.75 14.53, 78.09 20.73, 78.04 23.81 M78.04 23.81 C76.7 30.29, 77.01 30.71, 70.1 31.75 M78.04 23.81 C76.68 29.23, 73.37 31.29, 70.1 31.75 M70.1 31.75 C57.97 29.84, 44.01 30.97, 7.94 31.75 M70.1 31.75 C51.57 32.04, 33.19 30.88, 7.94 31.75 M7.94 31.75 C3.54 31.6, -0.44 30.18, 0 23.81 M7.94 31.75 C2.3 32.68, 0.02 31, 0 23.81 M0 23.81 C-0.18 18.85, -1.28 17.95, 0 7.94 M0 23.81 C-0.25 18.79, -0.21 13.75, 0 7.94 M0 7.94 C-1.01 2.84, 3.39 1.4, 7.94 0 M0 7.94 C-0.16 3.08, 3.45 -0.67, 7.94 0" stroke="#1e1e1e" stroke-width="1" fill="none"></path></g><g transform="translate(401.1910171508789 94.96230409927665) rotate(0 31.183982849121094 10)"><text x="31.183982849121094" y="0" font-family="Virgil, Segoe UI Emoji" font-size="16px" fill="#1e1e1e" text-anchor="middle" style="white-space: pre;" direction="ltr" dominant-baseline="text-before-edge">Feature</text></g><g stroke-linecap="round" transform="translate(721.19140625 553.6380853492767) rotate(0 49.486328125 16.025390625)"><path d="M2.13 1.85 C2.13 1.85, 2.13 1.85, 2.13 1.85 M2.13 1.85 C2.13 1.85, 2.13 1.85, 2.13 1.85 M0.56 9.76 C3.76 6.4, 4.38 4.84, 8.43 0.7 M0.56 9.76 C2.74 7.83, 3.7 5.42, 8.43 0.7 M0.3 16.16 C6.6 10.65, 9.84 5, 14.08 0.31 M0.3 16.16 C6.31 9.84, 11.36 4.32, 14.08 0.31 M0.69 21.8 C9.16 15.44, 15.05 5.41, 19.06 0.67 M0.69 21.8 C7.27 14.91, 12.97 8.78, 19.06 0.67 M1.09 27.45 C7.3 17.51, 14.11 10.03, 24.71 0.28 M1.09 27.45 C10.12 18.24, 17.51 7.55, 24.71 0.28 M3.45 30.82 C12.85 22.31, 20.87 10.53, 29.69 0.64 M3.45 30.82 C10.27 22.78, 18.84 13.6, 29.69 0.64 M7.78 31.94 C16.26 25.21, 22.66 14.02, 34.68 1 M7.78 31.94 C17.95 19.73, 27.6 9.28, 34.68 1 M12.77 32.3 C20.11 22.33, 31.46 12.78, 40.32 0.6 M12.77 32.3 C23.69 19.71, 34.15 6.86, 40.32 0.6 M18.41 31.9 C29 20.05, 39.02 8.2, 45.31 0.96 M18.41 31.9 C27.61 20.21, 37.5 10.55, 45.31 0.96 M23.4 32.26 C31.33 24.63, 35.86 18.04, 50.95 0.57 M23.4 32.26 C30.16 25.41, 36.02 18.46, 50.95 0.57 M29.04 31.87 C37.5 22.2, 49.11 9.69, 55.94 0.93 M29.04 31.87 C38.1 21.31, 46.8 11.37, 55.94 0.93 M34.03 32.23 C42.41 23, 50.57 12.74, 61.58 0.53 M34.03 32.23 C40.99 25.91, 47.12 18.14, 61.58 0.53 M39.01 32.59 C46.54 26.5, 53.59 14.76, 66.57 0.89 M39.01 32.59 C45.34 24.54, 53.22 16.54, 66.57 0.89 M44.66 32.2 C52.11 23.95, 59.38 16.58, 71.56 1.25 M44.66 32.2 C54.52 20.55, 63.58 10.91, 71.56 1.25 M49.65 32.56 C57.78 23.14, 68.23 12.26, 77.2 0.86 M49.65 32.56 C56.39 25.1, 62 15.91, 77.2 0.86 M55.29 32.16 C62.61 24.86, 67.51 17.71, 82.19 1.22 M55.29 32.16 C62.36 23.71, 70.84 15.73, 82.19 1.22 M60.28 32.52 C69.35 23.62, 77.38 14.51, 87.83 0.82 M60.28 32.52 C70.04 20.84, 80.97 9.09, 87.83 0.82 M65.92 32.13 C75.38 21.26, 82.84 10.32, 92.82 1.18 M65.92 32.13 C72.66 22.99, 80.14 15.01, 92.82 1.18 M70.91 32.49 C81.54 23.5, 88.42 10.95, 96.49 3.05 M70.91 32.49 C80.38 22.44, 90.17 11.03, 96.49 3.05 M76.55 32.09 C86.23 23.6, 92.57 12.14, 98.85 6.43 M76.55 32.09 C82.53 25.5, 86.85 19.53, 98.85 6.43 M81.54 32.45 C85.88 25.9, 92.05 20.08, 98.59 12.83 M81.54 32.45 C85.18 28.61, 89.57 23.58, 98.59 12.83 M86.52 32.81 C88.5 28.57, 91.6 24.46, 98.99 18.47 M86.52 32.81 C88.93 29.58, 92.4 25.92, 98.99 18.47 M92.82 31.66 C94.78 29.12, 95.75 27.27, 98.73 24.87 M92.82 31.66 C95.1 28.68, 97.29 26.25, 98.73 24.87 M4.43 31.48 C4.43 31.48, 4.43 31.48, 4.43 31.48 M4.43 31.48 C4.43 31.48, 4.43 31.48, 4.43 31.48 M10.83 31.75 C8.08 27.68, 3.59 25.28, 1.02 23.22 M10.83 31.75 C6.9 28.62, 3.2 24.63, 1.02 23.22 M16.47 31.35 C10.88 24.45, 6.68 22.46, 0.62 17.57 M16.47 31.35 C12.18 27.98, 8.23 25.76, 0.62 17.57 M22.87 31.61 C17.34 26.8, 11.66 24.01, 0.23 11.93 M22.87 31.61 C16.62 27.32, 12.36 21.96, 0.23 11.93 M29.27 31.87 C23.13 24.2, 15.21 22.17, 0.59 6.94 M29.27 31.87 C17.38 21.62, 6.77 12.74, 0.59 6.94 M34.91 31.48 C24.34 21, 11.92 11.7, 1.7 2.61 M34.91 31.48 C26.4 23.75, 16.05 16.03, 1.7 2.61 M41.31 31.74 C31.49 24.65, 24.51 18.3, 5.84 0.91 M41.31 31.74 C33.23 25.7, 26.63 18.66, 5.84 0.91 M47.71 32 C37.95 23.66, 26.95 16.41, 9.97 -0.8 M47.71 32 C36.42 23.77, 27.83 14.21, 9.97 -0.8 M53.35 31.61 C41.13 22.48, 31.21 12.04, 16.37 -0.54 M53.35 31.61 C42.64 20.72, 30.41 11.83, 16.37 -0.54 M59.75 31.87 C52.18 23.61, 41.65 15.68, 22.77 -0.28 M59.75 31.87 C50.5 24.46, 41.22 15.52, 22.77 -0.28 M66.15 32.13 C54.05 24.2, 44.13 15.53, 28.41 -0.67 M66.15 32.13 C54.16 21.97, 42.9 12.86, 28.41 -0.67 M71.79 31.74 C61.05 22.15, 47.54 10.85, 34.81 -0.41 M71.79 31.74 C56.84 19.45, 42.74 8.04, 34.81 -0.41 M78.19 32 C64.24 18.92, 51.4 10.05, 40.45 -0.81 M78.19 32 C68.92 23.05, 59.7 15.85, 40.45 -0.81 M84.58 32.26 C71.94 20.46, 62.07 12.19, 46.85 -0.54 M84.58 32.26 C74.62 23.37, 63.91 14.91, 46.85 -0.54 M90.23 31.86 C78.95 23.59, 70.74 17.12, 53.25 -0.28 M90.23 31.86 C80.05 23.49, 72.17 15.59, 53.25 -0.28 M94.36 30.16 C82.81 21.51, 71.26 9.74, 58.89 -0.68 M94.36 30.16 C86.62 23.1, 79.05 17.18, 58.89 -0.68 M98.49 28.45 C89.7 21.49, 79.43 12.09, 65.29 -0.42 M98.49 28.45 C89.2 20.85, 80.64 13.69, 65.29 -0.42 M98.85 23.46 C89.27 16.94, 77.59 5.74, 71.68 -0.15 M98.85 23.46 C93.94 18.48, 87.27 14.63, 71.68 -0.15 M98.46 17.82 C94.63 11.35, 86.09 10.48, 77.33 -0.55 M98.46 17.82 C93.43 13.08, 89.21 9.4, 77.33 -0.55 M98.82 12.83 C93.7 6.16, 87.34 1.71, 83.73 -0.29 M98.82 12.83 C93.51 7.84, 88.21 3.57, 83.73 -0.29 M98.43 7.19 C96.73 5.23, 93.68 2.35, 90.12 -0.03 M98.43 7.19 C96.65 5.95, 95.31 4.45, 90.12 -0.03" stroke="#b2f2bb" stroke-width="0.5" fill="none"></path><path d="M8.01 0 C29.03 -1.37, 53.25 1.37, 90.96 0 M8.01 0 C25.03 0.31, 43.12 0.41, 90.96 0 M90.96 0 C98.19 0.49, 97.98 0.85, 98.97 8.01 M90.96 0 C94.58 -1.87, 96.76 2.71, 98.97 8.01 M98.97 8.01 C100.49 14.79, 98.98 22.34, 98.97 24.04 M98.97 8.01 C98.32 11.84, 98.49 15.34, 98.97 24.04 M98.97 24.04 C98.29 29.04, 96.17 32.52, 90.96 32.05 M98.97 24.04 C97.44 29.56, 94.98 33.94, 90.96 32.05 M90.96 32.05 C63.23 31.65, 33.08 31.29, 8.01 32.05 M90.96 32.05 C66.88 32.48, 43.99 32.2, 8.01 32.05 M8.01 32.05 C4.09 32.76, 1.89 27.38, 0 24.04 M8.01 32.05 C3.51 32.2, -0.66 29.35, 0 24.04 M0 24.04 C-1.03 19.38, -0.75 11.5, 0 8.01 M0 24.04 C0.39 20.45, 0.27 14.93, 0 8.01 M0 8.01 C0.64 3.51, 4.22 0.6, 8.01 0 M0 8.01 C1.69 4.26, 1.71 -2.16, 8.01 0" stroke="#1e1e1e" stroke-width="1" fill="none"></path></g><g transform="translate(744.5577545166016 559.6634759742767) rotate(0 26.119979858398438 10)"><text x="26.119979858398438" y="0" font-family="Virgil, Segoe UI Emoji" font-size="16px" fill="#1e1e1e" text-anchor="middle" style="white-space: pre;" direction="ltr" dominant-baseline="text-before-edge">Accept</text></g><g stroke-linecap="round" transform="translate(597.466796875 553.2494134742767) rotate(0 49.486328125 16.025390625)"><path d="M8.01 0 C33.56 0.44, 57.94 -1.16, 90.96 0 M8.01 0 C26.53 -0.1, 44.62 -0.16, 90.96 0 M90.96 0 C96.5 1.66, 97.56 4.33, 98.97 8.01 M90.96 0 C95.83 -1.38, 99.63 2.77, 98.97 8.01 M98.97 8.01 C100.09 14.65, 98.37 19.69, 98.97 24.04 M98.97 8.01 C98.79 13.14, 98.55 17.58, 98.97 24.04 M98.97 24.04 C100.7 28.49, 96.77 33.89, 90.96 32.05 M98.97 24.04 C100.22 30.84, 94.28 30.3, 90.96 32.05 M90.96 32.05 C69.71 33.86, 45.71 30.66, 8.01 32.05 M90.96 32.05 C74.24 31.6, 57.29 31.36, 8.01 32.05 M8.01 32.05 C2.07 31.94, 1.29 27.99, 0 24.04 M8.01 32.05 C1.74 30.37, 2.25 30.37, 0 24.04 M0 24.04 C-0.49 18.18, 1.44 13.42, 0 8.01 M0 24.04 C-0.26 20.71, 0.65 17.49, 0 8.01 M0 8.01 C-0.73 4.33, 2.67 -0.63, 8.01 0 M0 8.01 C2.29 3.15, 1.86 -2.12, 8.01 0" stroke="#1e1e1e" stroke-width="1" fill="none"></path></g><g transform="translate(620.3531341552734 559.2748040992767) rotate(0 26.599990844726562 10)"><text x="26.599990844726562" y="0" font-family="Virgil, Segoe UI Emoji" font-size="16px" fill="#1e1e1e" text-anchor="middle" style="white-space: pre;" direction="ltr" dominant-baseline="text-before-edge">Decline</text></g><g transform="translate(389.40625 247.78261659927665) rotate(0 223.42385864257812 30)"><text x="0" y="0" font-family="Virgil, Segoe UI Emoji" font-size="16px" fill="#1e1e1e" text-anchor="start" style="white-space: pre;" direction="ltr" dominant-baseline="text-before-edge">As a store user, I need to search for products </text><text x="0" y="20" font-family="Virgil, Segoe UI Emoji" font-size="16px" fill="#1e1e1e" text-anchor="start" style="white-space: pre;" direction="ltr" dominant-baseline="text-before-edge">using textual search, as well as filtering by attributes </text><text x="0" y="40" font-family="Virgil, Segoe UI Emoji" font-size="16px" fill="#1e1e1e" text-anchor="start" style="white-space: pre;" direction="ltr" dominant-baseline="text-before-edge">such as size or availability</text></g></svg>